<svg xmlns="http://www.w3.org/2000/svg" viewBox="0 0 900 400" font-family="'Courier New', monospace">
  <defs>
    <filter id="glow"><feGaussianBlur stdDeviation="3" result="blur"/><feMerge><feMergeNode in="blur"/><feMergeNode in="SourceGraphic"/></feMerge></filter>
    <filter id="glowRed"><feGaussianBlur stdDeviation="4" result="blur"/><feMerge><feMergeNode in="blur"/><feMergeNode in="SourceGraphic"/></feMerge></filter>
    <linearGradient id="bgGrad" x1="0%" y1="0%" x2="100%" y2="100%"><stop offset="0%" style="stop-color:#0a0a0f"/><stop offset="100%" style="stop-color:#0d1117"/></linearGradient>
  </defs>

  <style>
    @keyframes phaseActive { 0%,100%{opacity:0.3} 50%{opacity:1;filter:url(#glow)} }
    @keyframes arrowPulse { 0%,100%{opacity:0.3} 50%{opacity:1} }
    @keyframes dataFlow { from{stroke-dashoffset:0} to{stroke-dashoffset:-20} }
    @keyframes slideIn { from{transform:translateX(-20px);opacity:0} to{transform:translateX(0);opacity:1} }
    @keyframes scanLine { from{transform:translateY(0)} to{transform:translateY(400px)} }

    .bg { fill:url(#bgGrad) }
    .phase-box { fill:#0a0a0f; stroke-width:2; rx:6; }
    .phase-active { animation:phaseActive 2s ease-in-out infinite; }
    .active-flow { stroke-dasharray:6 3; animation:dataFlow 1s linear infinite; }
    .scanline { stroke:#00ff4108; stroke-width:1; animation:scanLine 4s linear infinite; }
    .title { fill:#0ff; font-size:20px; font-weight:bold; text-anchor:middle; filter:url(#glow); }
    .phase-label { font-size:12px; font-weight:bold; text-anchor:middle; }
    .phase-detail { font-size:8px; text-anchor:middle; opacity:0.7; }
    .connector { fill:none; stroke-width:2; stroke-dasharray:8 4; }
  </style>

  <rect class="bg" width="900" height="400"/>
  <rect x="0" y="0" width="900" height="400" fill="none" stroke="#00ff4110" stroke-width="1"/>
  <line x1="0" y1="0" x2="900" y2="0" class="scanline"/>

  <text x="450" y="30" class="title">⚔️ SH4D0WF0RG3 — KILL CHAIN</text>
  <text x="450" y="48" class="phase-detail" fill="#00ff41" style="opacity:0.5">Fully Autonomous Pentest Campaign (Ethics First → Hack Second)</text>

  <!-- Phase 1: IDLE -->
  <rect x="15" y="80" width="110" height="140" class="phase-box" stroke="#00ff4166" rx="8"/>
  <text x="70" y="105" class="phase-label" fill="#00ff41">⏸ IDLE</text>
  <text x="70" y="125" class="phase-detail" fill="#00ff41">Waiting for</text>
  <text x="70" y="137" class="phase-detail" fill="#00ff41">target input</text>
  <text x="70" y="155" class="phase-detail" fill="#00ff4166">Authorization</text>
  <text x="70" y="167" class="phase-detail" fill="#00ff4166">check</text>
  <text x="70" y="185" class="phase-detail" fill="#00ff4144">Ready state</text>

  <!-- Phase 2: RECON -->
  <rect x="140" y="80" width="110" height="140" class="phase-box" stroke="#0ff" rx="8" style="animation:phaseActive 2s infinite"/>
  <text x="195" y="105" class="phase-label" fill="#0ff">🔍 RECON</text>
  <text x="195" y="125" class="phase-detail" fill="#0ff">Port Scanning</text>
  <text x="195" y="137" class="phase-detail" fill="#0ff">OSINT (Shodan)</text>
  <text x="195" y="155" class="phase-detail" fill="#0ff88">DNS Enum</text>
  <text x="195" y="167" class="phase-detail" fill="#0ff88">Web Fingerprint</text>
  <text x="195" y="185" class="phase-detail" fill="#0ff44">Nmap + Vision</text>

  <!-- Phase 3: SCAN -->
  <rect x="265" y="80" width="110" height="140" class="phase-box" stroke="#0ff" rx="8" style="animation:phaseActive 2s 0.33s infinite"/>
  <text x="320" y="105" class="phase-label" fill="#0ff">📡 SCAN</text>
  <text x="320" y="125" class="phase-detail" fill="#0ff">Service Detection</text>
  <text x="320" y="137" class="phase-detail" fill="#0ff">OS Fingerprint</text>
  <text x="320" y="155" class="phase-detail" fill="#0ff88">Vuln Scripts</text>
  <text x="320" y="167" class="phase-detail" fill="#0ff88">Version Enum</text>
  <text x="320" y="185" class="phase-detail" fill="#0ff44">Nmap -sV -sC</text>

  <!-- Phase 4: ENUM -->
  <rect x="390" y="80" width="110" height="140" class="phase-box" stroke="#0ff" rx="8" style="animation:phaseActive 2s 0.66s infinite"/>
  <text x="445" y="105" class="phase-label" fill="#0ff">📋 ENUM</text>
  <text x="445" y="125" class="phase-detail" fill="#0ff">Service Enum</text>
  <text x="445" y="137" class="phase-detail" fill="#0ff">User Discovery</text>
  <text x="445" y="155" class="phase-detail" fill="#0ff88">Share Enum SMB</text>
  <text x="445" y="167" class="phase-detail" fill="#0ff88">SNMP Enum</text>
  <text x="445" y="185" class="phase-detail" fill="#0ff44">enume4linux</text>

  <!-- Phase 5: EXPLOIT -->
  <rect x="515" y="80" width="110" height="140" class="phase-box" stroke="#ffd700" rx="8" style="animation:phaseActive 2s 1s infinite"/>
  <text x="570" y="105" class="phase-label" fill="#ffd700">⚡ EXPLOIT</text>
  <text x="570" y="125" class="phase-detail" fill="#ffd700">SQLi Testing</text>
  <text x="570" y="137" class="phase-detail" fill="#ffd700">XSS/CSRF/SSRF</text>
  <text x="570" y="155" class="phase-detail" fill="#ffd70088">Path Traversal</text>
  <text x="570" y="167" class="phase-detail" fill="#ffd70088">PoC Generation</text>
  <text x="570" y="185" class="phase-detail" fill="#ffd70044">NIM Analysis</text>

  <!-- Phase 6: POST -->
  <rect x="640" y="80" width="110" height="140" class="phase-box" stroke="#ff6600" rx="8" style="animation:phaseActive 2s 1.33s infinite"/>
  <text x="695" y="105" class="phase-label" fill="#ff6600">🔓 POST</text>
  <text x="695" y="125" class="phase-detail" fill="#ff6600">PrivEsc Check</text>
  <text x="695" y="137" class="phase-detail" fill="#ff6600">Lateral Mov.</text>
  <text x="695" y="155" class="phase-detail" fill="#ff660088">Persistence</text>
  <text x="695" y="167" class="phase-detail" fill="#ff660088">OPSEC Cleanup</text>
  <text x="695" y="185" class="phase-detail" fill="#ff660044">linpeas/winpeas</text>

  <!-- Phase 7: REPORT -->
  <rect x="765" y="80" width="110" height="140" class="phase-box" stroke="#ff0040" rx="8" style="animation:phaseActive 2s 1.66s infinite"/>
  <text x="820" y="105" class="phase-label" fill="#ff0040">📊 REPORT</text>
  <text x="820" y="125" class="phase-detail" fill="#ff0040">CVSS Scoring</text>
  <text x="820" y="137" class="phase-detail" fill="#ff0040">CIA Impact</text>
  <text x="820" y="155" class="phase-detail" fill="#ff004088">PDF Export</text>
  <text x="820" y="167" class="phase-detail" fill="#ff004088">HTML Dashboard</text>
  <text x="820" y="185" class="phase-detail" fill="#ff004044">Multi-format</text>

  <!-- Connectors between phases -->
  <line x1="125" y1="150" x2="140" y2="150" class="connector" stroke="#00ff41" style="animation:dataFlow 1s linear infinite"/>
  <line x1="250" y1="150" x2="265" y2="150" class="connector" stroke="#0ff" style="animation:dataFlow 1.1s linear infinite"/>
  <line x1="375" y1="150" x2="390" y2="150" class="connector" stroke="#0ff" style="animation:dataFlow 1.2s linear infinite"/>
  <line x1="500" y1="150" x2="515" y2="150" class="connector" stroke="#0ff" style="animation:dataFlow 1.3s linear infinite"/>
  <line x1="625" y1="150" x2="640" y2="150" class="connector" stroke="#ffd700" style="animation:dataFlow 1.4s linear infinite"/>
  <line x1="750" y1="150" x2="765" y2="150" class="connector" stroke="#ff6600" style="animation:dataFlow 1.5s linear infinite"/>

  <!-- Arrow heads -->
  <polygon points="138,146 142,150 138,154" fill="#00ff41"/>
  <polygon points="263,146 267,150 263,154" fill="#0ff"/>
  <polygon points="388,146 392,150 388,154" fill="#0ff"/>
  <polygon points="513,146 517,150 513,154" fill="#0ff"/>
  <polygon points="638,146 642,150 638,154" fill="#ffd700"/>
  <polygon points="763,146 767,150 763,154" fill="#ff6600"/>

  <!-- NVIDIA Stack Below -->
  <rect x="15" y="255" width="870" height="130" fill="#0a0a0fcc" stroke="#00ff4122" stroke-width="1" rx="8"/>
  <text x="450" y="278" fill="#76B900" font-size="14" font-weight="bold" text-anchor="middle">🟢 NVIDIA AI STACK</text>

  <!-- Stack items -->
  <g transform="translate(30,290)">
    <rect x="0" y="0" width="100" height="55" fill="#0d1117" stroke="#76B90044" stroke-width="1" rx="4"/>
    <text x="50" y="20" fill="#76B900" font-size="9" font-weight="bold" text-anchor="middle">NVIDIA NIM</text>
    <text x="50" y="34" fill="#76B90088" font-size="7" text-anchor="middle">Llama 3.3 70B</text>
    <text x="50" y="46" fill="#76B90066" font-size="6" text-anchor="middle">Inference 45ms</text>
  </g>
  <g transform="translate(145,290)">
    <rect x="0" y="0" width="100" height="55" fill="#0d1117" stroke="#76B90044" stroke-width="1" rx="4"/>
    <text x="50" y="20" fill="#76B900" font-size="9" font-weight="bold" text-anchor="middle">NVIDIA Riva</text>
    <text x="50" y="34" fill="#76B90088" font-size="7" text-anchor="middle">ASR 250ms</text>
    <text x="50" y="46" fill="#76B90066" font-size="6" text-anchor="middle">TTS 150ms</text>
  </g>
  <g transform="translate(260,290)">
    <rect x="0" y="0" width="100" height="55" fill="#0d1117" stroke="#76B90044" stroke-width="1" rx="4"/>
    <text x="50" y="20" fill="#76B900" font-size="9" font-weight="bold" text-anchor="middle">TensorRT</text>
    <text x="50" y="34" fill="#76B90088" font-size="7" text-anchor="middle">GPU Optimize</text>
    <text x="50" y="46" fill="#76B90066" font-size="6" text-anchor="middle">FP16/INT8</text>
  </g>
  <g transform="translate(375,290)">
    <rect x="0" y="0" width="100" height="55" fill="#0d1117" stroke="#76B90044" stroke-width="1" rx="4"/>
    <text x="50" y="20" fill="#76B900" font-size="9" font-weight="bold" text-anchor="middle">Nemotron</text>
    <text x="50" y="34" fill="#76B90088" font-size="7" text-anchor="middle">Vision VL</text>
    <text x="50" y="46" fill="#76B90066" font-size="6" text-anchor="middle">500ms</text>
  </g>
  <g transform="translate(490,290)">
    <rect x="0" y="0" width="100" height="55" fill="#0d1117" stroke="#76B90044" stroke-width="1" rx="4"/>
    <text x="50" y="20" fill="#76B900" font-size="9" font-weight="bold" text-anchor="middle">NeMo Retriever</text>
    <text x="50" y="34" fill="#76B90088" font-size="7" text-anchor="middle">Embeddings</text>
    <text x="50" y="46" fill="#76B90066" font-size="6" text-anchor="middle">100ms</text>
  </g>
  <g transform="translate(605,290)">
    <rect x="0" y="0" width="100" height="55" fill="#0d1117" stroke="#76B90044" stroke-width="1" rx="4"/>
    <text x="50" y="20" fill="#76B900" font-size="9" font-weight="bold" text-anchor="middle">CUDA</text>
    <text x="50" y="34" fill="#76B90088" font-size="7" text-anchor="middle">GPU Compute</text>
    <text x="50" y="46" fill="#76B90066" font-size="6" text-anchor="middle">Multi-GPU</text>
  </g>
  <g transform="translate(720,290)">
    <rect x="0" y="0" width="100" height="55" fill="#0d1117" stroke="#76B90044" stroke-width="1" rx="4"/>
    <text x="50" y="20" fill="#76B900" font-size="9" font-weight="bold" text-anchor="middle">DeepStream</text>
    <text x="50" y="34" fill="#76B90088" font-size="7" text-anchor="middle">Video Proc</text>
    <text x="50" y="46" fill="#76B90066" font-size="6" text-anchor="middle">30 FPS</text>
  </g>
</svg>